solid ascii
  facet normal 3.020303e-002 -9.995438e-001 1.192252e-017
    outer loop
      vertex   1.950000e+001 -1.100000e+001 8.000000e+000
      vertex   1.950000e+001 -1.100000e+001 -1.000000e+000
      vertex   1.956038e+001 -1.099818e+001 3.500000e+000
    endloop
  endfacet
  facet normal 1.802549e-001 -9.836189e-001 -1.413365e-003
    outer loop
      vertex   1.972252e+001 -1.097493e+001 8.000000e+000
      vertex   1.956038e+001 -1.099818e+001 3.500000e+000
      vertex   1.979750e+001 -1.095472e+001 3.500000e+000
    endloop
  endfacet
  facet normal 4.104123e-001 -9.118988e-001 -1.545763e-003
    outer loop
      vertex   1.993388e+001 -1.090097e+001 8.000000e+000
      vertex   1.979750e+001 -1.095472e+001 3.500000e+000
      vertex   2.001734e+001 -1.085578e+001 3.500000e+000
    endloop
  endfacet
  facet normal 6.167181e-001 -7.871825e-001 -1.611972e-003
    outer loop
      vertex   2.012349e+001 -1.078183e+001 8.000000e+000
      vertex   2.001734e+001 -1.085578e+001 3.500000e+000
      vertex   2.020711e+001 -1.070711e+001 3.500000e+000
    endloop
  endfacet
  facet normal 7.871825e-001 -6.167181e-001 -1.611972e-003
    outer loop
      vertex   2.028183e+001 -1.062349e+001 8.000000e+000
      vertex   2.020711e+001 -1.070711e+001 3.500000e+000
      vertex   2.035578e+001 -1.051734e+001 3.500000e+000
    endloop
  endfacet
  facet normal 9.118988e-001 -4.104123e-001 -1.545763e-003
    outer loop
      vertex   2.040097e+001 -1.043388e+001 8.000000e+000
      vertex   2.035578e+001 -1.051734e+001 3.500000e+000
      vertex   2.045472e+001 -1.029750e+001 3.500000e+000
    endloop
  endfacet
  facet normal 9.836189e-001 -1.802549e-001 -1.413365e-003
    outer loop
      vertex   2.047493e+001 -1.022252e+001 8.000000e+000
      vertex   2.045472e+001 -1.029750e+001 3.500000e+000
      vertex   2.049818e+001 -1.006038e+001 3.500000e+000
    endloop
  endfacet
  facet normal 9.995438e-001 -3.020303e-002 0.000000e+000
    outer loop
      vertex   2.050000e+001 -1.000000e+001 8.000000e+000
      vertex   2.049818e+001 -1.006038e+001 3.500000e+000
      vertex   2.050000e+001 -1.000000e+001 -1.000000e+000
    endloop
  endfacet
  facet normal 9.937116e-001 -1.119644e-001 1.099393e-003
    outer loop
      vertex   2.050000e+001 -1.000000e+001 8.000000e+000
      vertex   2.047493e+001 -1.022252e+001 8.000000e+000
      vertex   2.049818e+001 -1.006038e+001 3.500000e+000
    endloop
  endfacet
  facet normal 3.302788e-001 -9.438826e-001 -1.264872e-003
    outer loop
      vertex   1.993388e+001 -1.090097e+001 -1.000000e+000
      vertex   1.979750e+001 -1.095472e+001 3.500000e+000
      vertex   1.972252e+001 -1.097493e+001 -1.000000e+000
    endloop
  endfacet
  facet normal 4.104123e-001 -9.118988e-001 1.545763e-003
    outer loop
      vertex   1.993388e+001 -1.090097e+001 -1.000000e+000
      vertex   2.001734e+001 -1.085578e+001 3.500000e+000
      vertex   1.979750e+001 -1.095472e+001 3.500000e+000
    endloop
  endfacet
  facet normal 5.320316e-001 -8.467234e-001 -1.364180e-003
    outer loop
      vertex   1.993388e+001 -1.090097e+001 -1.000000e+000
      vertex   2.012349e+001 -1.078183e+001 -1.000000e+000
      vertex   2.001734e+001 -1.085578e+001 3.500000e+000
    endloop
  endfacet
  facet normal 6.167181e-001 -7.871825e-001 1.611972e-003
    outer loop
      vertex   2.001734e+001 -1.085578e+001 3.500000e+000
      vertex   2.012349e+001 -1.078183e+001 -1.000000e+000
      vertex   2.020711e+001 -1.070711e+001 3.500000e+000
    endloop
  endfacet
  facet normal 7.071061e-001 -7.071061e-001 -1.397285e-003
    outer loop
      vertex   2.020711e+001 -1.070711e+001 3.500000e+000
      vertex   2.012349e+001 -1.078183e+001 -1.000000e+000
      vertex   2.028183e+001 -1.062349e+001 -1.000000e+000
    endloop
  endfacet
  facet normal 8.467234e-001 -5.320316e-001 -1.364180e-003
    outer loop
      vertex   2.035578e+001 -1.051734e+001 3.500000e+000
      vertex   2.028183e+001 -1.062349e+001 -1.000000e+000
      vertex   2.040097e+001 -1.043388e+001 -1.000000e+000
    endloop
  endfacet
  facet normal 9.438826e-001 -3.302788e-001 -1.264872e-003
    outer loop
      vertex   2.045472e+001 -1.029750e+001 3.500000e+000
      vertex   2.040097e+001 -1.043388e+001 -1.000000e+000
      vertex   2.047493e+001 -1.022252e+001 -1.000000e+000
    endloop
  endfacet
  facet normal 9.937116e-001 -1.119644e-001 -1.099393e-003
    outer loop
      vertex   2.049818e+001 -1.006038e+001 3.500000e+000
      vertex   2.047493e+001 -1.022252e+001 -1.000000e+000
      vertex   2.050000e+001 -1.000000e+001 -1.000000e+000
    endloop
  endfacet
  facet normal 9.836189e-001 -1.802549e-001 1.413365e-003
    outer loop
      vertex   2.049818e+001 -1.006038e+001 3.500000e+000
      vertex   2.045472e+001 -1.029750e+001 3.500000e+000
      vertex   2.047493e+001 -1.022252e+001 -1.000000e+000
    endloop
  endfacet
  facet normal 7.871825e-001 -6.167181e-001 1.611972e-003
    outer loop
      vertex   2.020711e+001 -1.070711e+001 3.500000e+000
      vertex   2.028183e+001 -1.062349e+001 -1.000000e+000
      vertex   2.035578e+001 -1.051734e+001 3.500000e+000
    endloop
  endfacet
  facet normal 9.118988e-001 -4.104123e-001 1.545763e-003
    outer loop
      vertex   2.035578e+001 -1.051734e+001 3.500000e+000
      vertex   2.040097e+001 -1.043388e+001 -1.000000e+000
      vertex   2.045472e+001 -1.029750e+001 3.500000e+000
    endloop
  endfacet
  facet normal 9.438826e-001 -3.302788e-001 1.264872e-003
    outer loop
      vertex   2.047493e+001 -1.022252e+001 8.000000e+000
      vertex   2.040097e+001 -1.043388e+001 8.000000e+000
      vertex   2.045472e+001 -1.029750e+001 3.500000e+000
    endloop
  endfacet
  facet normal 8.467234e-001 -5.320316e-001 1.364180e-003
    outer loop
      vertex   2.040097e+001 -1.043388e+001 8.000000e+000
      vertex   2.028183e+001 -1.062349e+001 8.000000e+000
      vertex   2.035578e+001 -1.051734e+001 3.500000e+000
    endloop
  endfacet
  facet normal 7.071061e-001 -7.071061e-001 1.397285e-003
    outer loop
      vertex   2.028183e+001 -1.062349e+001 8.000000e+000
      vertex   2.012349e+001 -1.078183e+001 8.000000e+000
      vertex   2.020711e+001 -1.070711e+001 3.500000e+000
    endloop
  endfacet
  facet normal 5.320316e-001 -8.467234e-001 1.364180e-003
    outer loop
      vertex   2.012349e+001 -1.078183e+001 8.000000e+000
      vertex   1.993388e+001 -1.090097e+001 8.000000e+000
      vertex   2.001734e+001 -1.085578e+001 3.500000e+000
    endloop
  endfacet
  facet normal 3.302788e-001 -9.438826e-001 1.264872e-003
    outer loop
      vertex   1.993388e+001 -1.090097e+001 8.000000e+000
      vertex   1.972252e+001 -1.097493e+001 8.000000e+000
      vertex   1.979750e+001 -1.095472e+001 3.500000e+000
    endloop
  endfacet
  facet normal 1.119644e-001 -9.937116e-001 1.099393e-003
    outer loop
      vertex   1.972252e+001 -1.097493e+001 8.000000e+000
      vertex   1.950000e+001 -1.100000e+001 8.000000e+000
      vertex   1.956038e+001 -1.099818e+001 3.500000e+000
    endloop
  endfacet
  facet normal 1.802549e-001 -9.836189e-001 1.413365e-003
    outer loop
      vertex   1.972252e+001 -1.097493e+001 -1.000000e+000
      vertex   1.979750e+001 -1.095472e+001 3.500000e+000
      vertex   1.956038e+001 -1.099818e+001 3.500000e+000
    endloop
  endfacet
  facet normal 1.119644e-001 -9.937116e-001 -1.099393e-003
    outer loop
      vertex   1.950000e+001 -1.100000e+001 -1.000000e+000
      vertex   1.972252e+001 -1.097493e+001 -1.000000e+000
      vertex   1.956038e+001 -1.099818e+001 3.500000e+000
    endloop
  endfacet
  facet normal -9.109522e-017 -1.000000e+000 0.000000e+000
    outer loop
      vertex   1.950000e+001 -1.100000e+001 8.000000e+000
      vertex   -1.950000e+001 -1.100000e+001 8.000000e+000
      vertex   1.950000e+001 -1.100000e+001 -1.000000e+000
    endloop
  endfacet
  facet normal -9.109522e-017 -1.000000e+000 3.595947e-032
    outer loop
      vertex   1.950000e+001 -1.100000e+001 -1.000000e+000
      vertex   -1.950000e+001 -1.100000e+001 8.000000e+000
      vertex   -1.950000e+001 -1.100000e+001 -1.000000e+000
    endloop
  endfacet
  facet normal 0.000000e+000 -0.000000e+000 1.000000e+000
    outer loop
      vertex   1.972252e+001 -1.097493e+001 8.000000e+000
      vertex   1.993388e+001 -1.090097e+001 8.000000e+000
      vertex   1.950000e+001 -1.100000e+001 8.000000e+000
    endloop
  endfacet
  facet normal 0.000000e+000 0.000000e+000 1.000000e+000
    outer loop
      vertex   1.950000e+001 -1.100000e+001 8.000000e+000
      vertex   1.993388e+001 -1.090097e+001 8.000000e+000
      vertex   2.012349e+001 -1.078183e+001 8.000000e+000
    endloop
  endfacet
  facet normal -0.000000e+000 0.000000e+000 1.000000e+000
    outer loop
      vertex   2.028183e+001 -1.062349e+001 8.000000e+000
      vertex   1.950000e+001 -1.100000e+001 8.000000e+000
      vertex   2.012349e+001 -1.078183e+001 8.000000e+000
    endloop
  endfacet
  facet normal 0.000000e+000 -0.000000e+000 1.000000e+000
    outer loop
      vertex   2.028183e+001 -1.062349e+001 8.000000e+000
      vertex   2.040097e+001 -1.043388e+001 8.000000e+000
      vertex   1.950000e+001 -1.100000e+001 8.000000e+000
    endloop
  endfacet
  facet normal 0.000000e+000 0.000000e+000 1.000000e+000
    outer loop
      vertex   1.950000e+001 -1.100000e+001 8.000000e+000
      vertex   2.040097e+001 -1.043388e+001 8.000000e+000
      vertex   2.047493e+001 -1.022252e+001 8.000000e+000
    endloop
  endfacet
  facet normal -0.000000e+000 0.000000e+000 1.000000e+000
    outer loop
      vertex   1.850000e+001 -9.000000e+000 8.000000e+000
      vertex   2.047493e+001 -1.022252e+001 8.000000e+000
      vertex   2.050000e+001 -1.000000e+001 8.000000e+000
    endloop
  endfacet
  facet normal 0.000000e+000 0.000000e+000 1.000000e+000
    outer loop
      vertex   2.050000e+001 -4.000000e+000 8.000000e+000
      vertex   1.850000e+001 -9.000000e+000 8.000000e+000
      vertex   2.050000e+001 -1.000000e+001 8.000000e+000
    endloop
  endfacet
  facet normal 0.000000e+000 0.000000e+000 1.000000e+000
    outer loop
      vertex   2.050000e+001 -4.000000e+000 8.000000e+000
      vertex   1.850000e+001 -4.000000e+000 8.000000e+000
      vertex   1.850000e+001 -9.000000e+000 8.000000e+000
    endloop
  endfacet
  facet normal 0.000000e+000 -0.000000e+000 1.000000e+000
    outer loop
      vertex   1.950000e+001 -1.100000e+001 8.000000e+000
      vertex   2.047493e+001 -1.022252e+001 8.000000e+000
      vertex   1.850000e+001 -9.000000e+000 8.000000e+000
    endloop
  endfacet
  facet normal -0.000000e+000 -0.000000e+000 1.000000e+000
    outer loop
      vertex   -1.850000e+001 -9.000000e+000 8.000000e+000
      vertex   1.950000e+001 -1.100000e+001 8.000000e+000
      vertex   1.850000e+001 -9.000000e+000 8.000000e+000
    endloop
  endfacet
  facet normal 0.000000e+000 0.000000e+000 1.000000e+000
    outer loop
      vertex   -1.850000e+001 -9.000000e+000 8.000000e+000
      vertex   -1.950000e+001 -1.100000e+001 8.000000e+000
      vertex   1.950000e+001 -1.100000e+001 8.000000e+000
    endloop
  endfacet
  facet normal 0.000000e+000 0.000000e+000 1.000000e+000
    outer loop
      vertex   -1.850000e+001 -9.000000e+000 8.000000e+000
      vertex   -2.047493e+001 -1.022252e+001 8.000000e+000
      vertex   -1.950000e+001 -1.100000e+001 8.000000e+000
    endloop
  endfacet
  facet normal 0.000000e+000 0.000000e+000 1.000000e+000
    outer loop
      vertex   -1.850000e+001 -9.000000e+000 8.000000e+000
      vertex   -2.050000e+001 -1.000000e+001 8.000000e+000
      vertex   -2.047493e+001 -1.022252e+001 8.000000e+000
    endloop
  endfacet
  facet normal 0.000000e+000 0.000000e+000 1.000000e+000
    outer loop
      vertex   -1.850000e+001 -9.000000e+000 8.000000e+000
      vertex   -2.050000e+001 -6.000000e+000 8.000000e+000
      vertex   -2.050000e+001 -1.000000e+001 8.000000e+000
    endloop
  endfacet
  facet normal 0.000000e+000 -0.000000e+000 1.000000e+000
    outer loop
      vertex   -1.850000e+001 -9.000000e+000 8.000000e+000
      vertex   -1.850000e+001 -6.000000e+000 8.000000e+000
      vertex   -2.050000e+001 -6.000000e+000 8.000000e+000
    endloop
  endfacet
  facet normal 0.000000e+000 0.000000e+000 1.000000e+000
    outer loop
      vertex   -2.047493e+001 -1.022252e+001 8.000000e+000
      vertex   -2.040097e+001 -1.043388e+001 8.000000e+000
      vertex   -1.950000e+001 -1.100000e+001 8.000000e+000
    endloop
  endfacet
  facet normal 0.000000e+000 0.000000e+000 1.000000e+000
    outer loop
      vertex   -1.950000e+001 -1.100000e+001 8.000000e+000
      vertex   -2.040097e+001 -1.043388e+001 8.000000e+000
      vertex   -2.028183e+001 -1.062349e+001 8.000000e+000
    endloop
  endfacet
  facet normal -0.000000e+000 -0.000000e+000 1.000000e+000
    outer loop
      vertex   -2.012349e+001 -1.078183e+001 8.000000e+000
      vertex   -1.950000e+001 -1.100000e+001 8.000000e+000
      vertex   -2.028183e+001 -1.062349e+001 8.000000e+000
    endloop
  endfacet
  facet normal 0.000000e+000 0.000000e+000 1.000000e+000
    outer loop
      vertex   -2.012349e+001 -1.078183e+001 8.000000e+000
      vertex   -1.993388e+001 -1.090097e+001 8.000000e+000
      vertex   -1.950000e+001 -1.100000e+001 8.000000e+000
    endloop
  endfacet
  facet normal 0.000000e+000 0.000000e+000 1.000000e+000
    outer loop
      vertex   -1.950000e+001 -1.100000e+001 8.000000e+000
      vertex   -1.993388e+001 -1.090097e+001 8.000000e+000
      vertex   -1.972252e+001 -1.097493e+001 8.000000e+000
    endloop
  endfacet
  facet normal -9.995438e-001 -3.020303e-002 -0.000000e+000
    outer loop
      vertex   -2.050000e+001 -1.000000e+001 8.000000e+000
      vertex   -2.050000e+001 -1.000000e+001 -1.000000e+000
      vertex   -2.049818e+001 -1.006038e+001 3.500000e+000
    endloop
  endfacet
  facet normal -9.836189e-001 -1.802549e-001 -1.413365e-003
    outer loop
      vertex   -2.047493e+001 -1.022252e+001 8.000000e+000
      vertex   -2.049818e+001 -1.006038e+001 3.500000e+000
      vertex   -2.045472e+001 -1.029750e+001 3.500000e+000
    endloop
  endfacet
  facet normal -9.118988e-001 -4.104123e-001 -1.545763e-003
    outer loop
      vertex   -2.040097e+001 -1.043388e+001 8.000000e+000
      vertex   -2.045472e+001 -1.029750e+001 3.500000e+000
      vertex   -2.035578e+001 -1.051734e+001 3.500000e+000
    endloop
  endfacet
  facet normal -7.871825e-001 -6.167181e-001 -1.611972e-003
    outer loop
      vertex   -2.028183e+001 -1.062349e+001 8.000000e+000
      vertex   -2.035578e+001 -1.051734e+001 3.500000e+000
      vertex   -2.020711e+001 -1.070711e+001 3.500000e+000
    endloop
  endfacet
  facet normal -6.167181e-001 -7.871825e-001 -1.611972e-003
    outer loop
      vertex   -2.012349e+001 -1.078183e+001 8.000000e+000
      vertex   -2.020711e+001 -1.070711e+001 3.500000e+000
      vertex   -2.001734e+001 -1.085578e+001 3.500000e+000
    endloop
  endfacet
  facet normal -4.104123e-001 -9.118988e-001 -1.545763e-003
    outer loop
      vertex   -1.993388e+001 -1.090097e+001 8.000000e+000
      vertex   -2.001734e+001 -1.085578e+001 3.500000e+000
      vertex   -1.979750e+001 -1.095472e+001 3.500000e+000
    endloop
  endfacet
  facet normal -1.802549e-001 -9.836189e-001 -1.413365e-003
    outer loop
      vertex   -1.972252e+001 -1.097493e+001 8.000000e+000
      vertex   -1.979750e+001 -1.095472e+001 3.500000e+000
      vertex   -1.956038e+001 -1.099818e+001 3.500000e+000
    endloop
  endfacet
  facet normal -3.020303e-002 -9.995438e-001 1.191585e-017
    outer loop
      vertex   -1.950000e+001 -1.100000e+001 8.000000e+000
      vertex   -1.956038e+001 -1.099818e+001 3.500000e+000
      vertex   -1.950000e+001 -1.100000e+001 -1.000000e+000
    endloop
  endfacet
  facet normal -1.119644e-001 -9.937116e-001 1.099393e-003
    outer loop
      vertex   -1.950000e+001 -1.100000e+001 8.000000e+000
      vertex   -1.972252e+001 -1.097493e+001 8.000000e+000
      vertex   -1.956038e+001 -1.099818e+001 3.500000e+000
    endloop
  endfacet
  facet normal -9.438826e-001 -3.302788e-001 -1.264872e-003
    outer loop
      vertex   -2.040097e+001 -1.043388e+001 -1.000000e+000
      vertex   -2.045472e+001 -1.029750e+001 3.500000e+000
      vertex   -2.047493e+001 -1.022252e+001 -1.000000e+000
    endloop
  endfacet
  facet normal -9.118988e-001 -4.104123e-001 1.545763e-003
    outer loop
      vertex   -2.040097e+001 -1.043388e+001 -1.000000e+000
      vertex   -2.035578e+001 -1.051734e+001 3.500000e+000
      vertex   -2.045472e+001 -1.029750e+001 3.500000e+000
    endloop
  endfacet
  facet normal -8.467234e-001 -5.320316e-001 -1.364180e-003
    outer loop
      vertex   -2.040097e+001 -1.043388e+001 -1.000000e+000
      vertex   -2.028183e+001 -1.062349e+001 -1.000000e+000
      vertex   -2.035578e+001 -1.051734e+001 3.500000e+000
    endloop
  endfacet
  facet normal -7.871825e-001 -6.167181e-001 1.611972e-003
    outer loop
      vertex   -2.035578e+001 -1.051734e+001 3.500000e+000
      vertex   -2.028183e+001 -1.062349e+001 -1.000000e+000
      vertex   -2.020711e+001 -1.070711e+001 3.500000e+000
    endloop
  endfacet
  facet normal -7.071061e-001 -7.071061e-001 -1.397285e-003
    outer loop
      vertex   -2.020711e+001 -1.070711e+001 3.500000e+000
      vertex   -2.028183e+001 -1.062349e+001 -1.000000e+000
      vertex   -2.012349e+001 -1.078183e+001 -1.000000e+000
    endloop
  endfacet
  facet normal -5.320316e-001 -8.467234e-001 -1.364180e-003
    outer loop
      vertex   -2.001734e+001 -1.085578e+001 3.500000e+000
      vertex   -2.012349e+001 -1.078183e+001 -1.000000e+000
      vertex   -1.993388e+001 -1.090097e+001 -1.000000e+000
    endloop
  endfacet
  facet normal -3.302788e-001 -9.438826e-001 -1.264872e-003
    outer loop
      vertex   -1.979750e+001 -1.095472e+001 3.500000e+000
      vertex   -1.993388e+001 -1.090097e+001 -1.000000e+000
      vertex   -1.972252e+001 -1.097493e+001 -1.000000e+000
    endloop
  endfacet
  facet normal -1.119644e-001 -9.937116e-001 -1.099393e-003
    outer loop
      vertex   -1.956038e+001 -1.099818e+001 3.500000e+000
      vertex   -1.972252e+001 -1.097493e+001 -1.000000e+000
      vertex   -1.950000e+001 -1.100000e+001 -1.000000e+000
    endloop
  endfacet
  facet normal -1.802549e-001 -9.836189e-001 1.413365e-003
    outer loop
      vertex   -1.956038e+001 -1.099818e+001 3.500000e+000
      vertex   -1.979750e+001 -1.095472e+001 3.500000e+000
      vertex   -1.972252e+001 -1.097493e+001 -1.000000e+000
    endloop
  endfacet
  facet normal -6.167181e-001 -7.871825e-001 1.611972e-003
    outer loop
      vertex   -2.020711e+001 -1.070711e+001 3.500000e+000
      vertex   -2.012349e+001 -1.078183e+001 -1.000000e+000
      vertex   -2.001734e+001 -1.085578e+001 3.500000e+000
    endloop
  endfacet
  facet normal -4.104123e-001 -9.118988e-001 1.545763e-003
    outer loop
      vertex   -2.001734e+001 -1.085578e+001 3.500000e+000
      vertex   -1.993388e+001 -1.090097e+001 -1.000000e+000
      vertex   -1.979750e+001 -1.095472e+001 3.500000e+000
    endloop
  endfacet
  facet normal -3.302788e-001 -9.438826e-001 1.264872e-003
    outer loop
      vertex   -1.972252e+001 -1.097493e+001 8.000000e+000
      vertex   -1.993388e+001 -1.090097e+001 8.000000e+000
      vertex   -1.979750e+001 -1.095472e+001 3.500000e+000
    endloop
  endfacet
  facet normal -5.320316e-001 -8.467234e-001 1.364180e-003
    outer loop
      vertex   -1.993388e+001 -1.090097e+001 8.000000e+000
      vertex   -2.012349e+001 -1.078183e+001 8.000000e+000
      vertex   -2.001734e+001 -1.085578e+001 3.500000e+000
    endloop
  endfacet
  facet normal -7.071061e-001 -7.071061e-001 1.397285e-003
    outer loop
      vertex   -2.012349e+001 -1.078183e+001 8.000000e+000
      vertex   -2.028183e+001 -1.062349e+001 8.000000e+000
      vertex   -2.020711e+001 -1.070711e+001 3.500000e+000
    endloop
  endfacet
  facet normal -8.467234e-001 -5.320316e-001 1.364180e-003
    outer loop
      vertex   -2.028183e+001 -1.062349e+001 8.000000e+000
      vertex   -2.040097e+001 -1.043388e+001 8.000000e+000
      vertex   -2.035578e+001 -1.051734e+001 3.500000e+000
    endloop
  endfacet
  facet normal -9.438826e-001 -3.302788e-001 1.264872e-003
    outer loop
      vertex   -2.040097e+001 -1.043388e+001 8.000000e+000
      vertex   -2.047493e+001 -1.022252e+001 8.000000e+000
      vertex   -2.045472e+001 -1.029750e+001 3.500000e+000
    endloop
  endfacet
  facet normal -9.937116e-001 -1.119644e-001 1.099393e-003
    outer loop
      vertex   -2.047493e+001 -1.022252e+001 8.000000e+000
      vertex   -2.050000e+001 -1.000000e+001 8.000000e+000
      vertex   -2.049818e+001 -1.006038e+001 3.500000e+000
    endloop
  endfacet
  facet normal -9.836189e-001 -1.802549e-001 1.413365e-003
    outer loop
      vertex   -2.047493e+001 -1.022252e+001 -1.000000e+000
      vertex   -2.045472e+001 -1.029750e+001 3.500000e+000
      vertex   -2.049818e+001 -1.006038e+001 3.500000e+000
    endloop
  endfacet
  facet normal -9.937116e-001 -1.119644e-001 -1.099393e-003
    outer loop
      vertex   -2.050000e+001 -1.000000e+001 -1.000000e+000
      vertex   -2.047493e+001 -1.022252e+001 -1.000000e+000
      vertex   -2.049818e+001 -1.006038e+001 3.500000e+000
    endloop
  endfacet
  facet normal -1.000000e+000 2.664535e-015 0.000000e+000
    outer loop
      vertex   -2.050000e+001 -1.000000e+001 8.000000e+000
      vertex   -2.050000e+001 -6.000000e+000 1.000000e+000
      vertex   -2.050000e+001 -1.000000e+001 -1.000000e+000
    endloop
  endfacet
  facet normal -1.000000e+000 3.552714e-015 5.075305e-016
    outer loop
      vertex   -2.050000e+001 -1.000000e+001 8.000000e+000
      vertex   -2.050000e+001 -6.000000e+000 8.000000e+000
      vertex   -2.050000e+001 -6.000000e+000 1.000000e+000
    endloop
  endfacet
  facet normal -1.000000e+000 -5.921189e-016 6.513308e-015
    outer loop
      vertex   -2.050000e+001 -6.000000e+000 1.000000e+000
      vertex   -2.050000e+001 6.000000e+000 1.000000e+000
      vertex   -2.050000e+001 -1.000000e+001 -1.000000e+000
    endloop
  endfacet
  facet normal -1.000000e+000 5.329071e-016 -2.486900e-015
    outer loop
      vertex   -2.050000e+001 -1.000000e+001 -1.000000e+000
      vertex   -2.050000e+001 6.000000e+000 1.000000e+000
      vertex   -2.050000e+001 1.000000e+001 -1.000000e+000
    endloop
  endfacet
  facet normal -1.000000e+000 1.776357e-015 0.000000e+000
    outer loop
      vertex   -2.050000e+001 1.000000e+001 -1.000000e+000
      vertex   -2.050000e+001 6.000000e+000 1.000000e+000
      vertex   -2.050000e+001 1.000000e+001 8.000000e+000
    endloop
  endfacet
  facet normal -1.000000e+000 1.776357e-015 0.000000e+000
    outer loop
      vertex   -2.050000e+001 1.000000e+001 8.000000e+000
      vertex   -2.050000e+001 6.000000e+000 1.000000e+000
      vertex   -2.050000e+001 6.000000e+000 8.000000e+000
    endloop
  endfacet
  facet normal -9.995438e-001 3.020303e-002 0.000000e+000
    outer loop
      vertex   -2.050000e+001 1.000000e+001 -1.000000e+000
      vertex   -2.050000e+001 1.000000e+001 8.000000e+000
      vertex   -2.049818e+001 1.006038e+001 3.500000e+000
    endloop
  endfacet
  facet normal -9.836189e-001 1.802549e-001 1.413365e-003
    outer loop
      vertex   -2.047493e+001 1.022252e+001 -1.000000e+000
      vertex   -2.049818e+001 1.006038e+001 3.500000e+000
      vertex   -2.045472e+001 1.029750e+001 3.500000e+000
    endloop
  endfacet
  facet normal -9.118988e-001 4.104123e-001 1.545763e-003
    outer loop
      vertex   -2.040097e+001 1.043388e+001 -1.000000e+000
      vertex   -2.045472e+001 1.029750e+001 3.500000e+000
      vertex   -2.035578e+001 1.051734e+001 3.500000e+000
    endloop
  endfacet
  facet normal -7.871825e-001 6.167181e-001 1.611972e-003
    outer loop
      vertex   -2.028183e+001 1.062349e+001 -1.000000e+000
      vertex   -2.035578e+001 1.051734e+001 3.500000e+000
      vertex   -2.020711e+001 1.070711e+001 3.500000e+000
    endloop
  endfacet
  facet normal -6.167181e-001 7.871825e-001 1.611972e-003
    outer loop
      vertex   -2.012349e+001 1.078183e+001 -1.000000e+000
      vertex   -2.020711e+001 1.070711e+001 3.500000e+000
      vertex   -2.001734e+001 1.085578e+001 3.500000e+000
    endloop
  endfacet
  facet normal -4.104123e-001 9.118988e-001 1.545763e-003
    outer loop
      vertex   -1.993388e+001 1.090097e+001 -1.000000e+000
      vertex   -2.001734e+001 1.085578e+001 3.500000e+000
      vertex   -1.979750e+001 1.095472e+001 3.500000e+000
    endloop
  endfacet
  facet normal -1.802549e-001 9.836189e-001 1.413365e-003
    outer loop
      vertex   -1.972252e+001 1.097493e+001 -1.000000e+000
      vertex   -1.979750e+001 1.095472e+001 3.500000e+000
      vertex   -1.956038e+001 1.099818e+001 3.500000e+000
    endloop
  endfacet
  facet normal -3.020303e-002 9.995438e-001 0.000000e+000
    outer loop
      vertex   -1.950000e+001 1.100000e+001 -1.000000e+000
      vertex   -1.956038e+001 1.099818e+001 3.500000e+000
      vertex   -1.950000e+001 1.100000e+001 8.000000e+000
    endloop
  endfacet
  facet normal -1.119644e-001 9.937116e-001 -1.099393e-003
    outer loop
      vertex   -1.950000e+001 1.100000e+001 -1.000000e+000
      vertex   -1.972252e+001 1.097493e+001 -1.000000e+000
      vertex   -1.956038e+001 1.099818e+001 3.500000e+000
    endloop
  endfacet
  facet normal -9.438826e-001 3.302788e-001 1.264872e-003
    outer loop
      vertex   -2.040097e+001 1.043388e+001 8.000000e+000
      vertex   -2.045472e+001 1.029750e+001 3.500000e+000
      vertex   -2.047493e+001 1.022252e+001 8.000000e+000
    endloop
  endfacet
  facet normal -9.118988e-001 4.104123e-001 -1.545763e-003
    outer loop
      vertex   -2.040097e+001 1.043388e+001 8.000000e+000
      vertex   -2.035578e+001 1.051734e+001 3.500000e+000
      vertex   -2.045472e+001 1.029750e+001 3.500000e+000
    endloop
  endfacet
  facet normal -8.467234e-001 5.320316e-001 1.364180e-003
    outer loop
      vertex   -2.040097e+001 1.043388e+001 8.000000e+000
      vertex   -2.028183e+001 1.062349e+001 8.000000e+000
      vertex   -2.035578e+001 1.051734e+001 3.500000e+000
    endloop
  endfacet
  facet normal -7.871825e-001 6.167181e-001 -1.611972e-003
    outer loop
      vertex   -2.035578e+001 1.051734e+001 3.500000e+000
      vertex   -2.028183e+001 1.062349e+001 8.000000e+000
      vertex   -2.020711e+001 1.070711e+001 3.500000e+000
    endloop
  endfacet
  facet normal -7.071061e-001 7.071061e-001 1.397285e-003
    outer loop
      vertex   -2.020711e+001 1.070711e+001 3.500000e+000
      vertex   -2.028183e+001 1.062349e+001 8.000000e+000
      vertex   -2.012349e+001 1.078183e+001 8.000000e+000
    endloop
  endfacet
  facet normal -5.320316e-001 8.467234e-001 1.364180e-003
    outer loop
      vertex   -2.001734e+001 1.085578e+001 3.500000e+000
      vertex   -2.012349e+001 1.078183e+001 8.000000e+000
      vertex   -1.993388e+001 1.090097e+001 8.000000e+000
    endloop
  endfacet
  facet normal -3.302788e-001 9.438826e-001 1.264872e-003
    outer loop
      vertex   -1.979750e+001 1.095472e+001 3.500000e+000
      vertex   -1.993388e+001 1.090097e+001 8.000000e+000
      vertex   -1.972252e+001 1.097493e+001 8.000000e+000
    endloop
  endfacet
  facet normal -1.119644e-001 9.937116e-001 1.099393e-003
    outer loop
      vertex   -1.956038e+001 1.099818e+001 3.500000e+000
      vertex   -1.972252e+001 1.097493e+001 8.000000e+000
      vertex   -1.950000e+001 1.100000e+001 8.000000e+000
    endloop
  endfacet
  facet normal -1.802549e-001 9.836189e-001 -1.413365e-003
    outer loop
      vertex   -1.956038e+001 1.099818e+001 3.500000e+000
      vertex   -1.979750e+001 1.095472e+001 3.500000e+000
      vertex   -1.972252e+001 1.097493e+001 8.000000e+000
    endloop
  endfacet
  facet normal -6.167181e-001 7.871825e-001 -1.611972e-003
    outer loop
      vertex   -2.020711e+001 1.070711e+001 3.500000e+000
      vertex   -2.012349e+001 1.078183e+001 8.000000e+000
      vertex   -2.001734e+001 1.085578e+001 3.500000e+000
    endloop
  endfacet
  facet normal -4.104123e-001 9.118988e-001 -1.545763e-003
    outer loop
      vertex   -2.001734e+001 1.085578e+001 3.500000e+000
      vertex   -1.993388e+001 1.090097e+001 8.000000e+000
      vertex   -1.979750e+001 1.095472e+001 3.500000e+000
    endloop
  endfacet
  facet normal -3.302788e-001 9.438826e-001 -1.264872e-003
    outer loop
      vertex   -1.972252e+001 1.097493e+001 -1.000000e+000
      vertex   -1.993388e+001 1.090097e+001 -1.000000e+000
      vertex   -1.979750e+001 1.095472e+001 3.500000e+000
    endloop
  endfacet
  facet normal -5.320316e-001 8.467234e-001 -1.364180e-003
    outer loop
      vertex   -1.993388e+001 1.090097e+001 -1.000000e+000
      vertex   -2.012349e+001 1.078183e+001 -1.000000e+000
      vertex   -2.001734e+001 1.085578e+001 3.500000e+000
    endloop
  endfacet
  facet normal -7.071061e-001 7.071061e-001 -1.397285e-003
    outer loop
      vertex   -2.012349e+001 1.078183e+001 -1.000000e+000
      vertex   -2.028183e+001 1.062349e+001 -1.000000e+000
      vertex   -2.020711e+001 1.070711e+001 3.500000e+000
    endloop
  endfacet
  facet normal -8.467234e-001 5.320316e-001 -1.364180e-003
    outer loop
      vertex   -2.028183e+001 1.062349e+001 -1.000000e+000
      vertex   -2.040097e+001 1.043388e+001 -1.000000e+000
      vertex   -2.035578e+001 1.051734e+001 3.500000e+000
    endloop
  endfacet
  facet normal -9.438826e-001 3.302788e-001 -1.264872e-003
    outer loop
      vertex   -2.040097e+001 1.043388e+001 -1.000000e+000
      vertex   -2.047493e+001 1.022252e+001 -1.000000e+000
      vertex   -2.045472e+001 1.029750e+001 3.500000e+000
    endloop
  endfacet
  facet normal -9.937116e-001 1.119644e-001 -1.099393e-003
    outer loop
      vertex   -2.047493e+001 1.022252e+001 -1.000000e+000
      vertex   -2.050000e+001 1.000000e+001 -1.000000e+000
      vertex   -2.049818e+001 1.006038e+001 3.500000e+000
    endloop
  endfacet
  facet normal -9.836189e-001 1.802549e-001 -1.413365e-003
    outer loop
      vertex   -2.047493e+001 1.022252e+001 8.000000e+000
      vertex   -2.045472e+001 1.029750e+001 3.500000e+000
      vertex   -2.049818e+001 1.006038e+001 3.500000e+000
    endloop
  endfacet
  facet normal -9.937116e-001 1.119644e-001 1.099393e-003
    outer loop
      vertex   -2.050000e+001 1.000000e+001 8.000000e+000
      vertex   -2.047493e+001 1.022252e+001 8.000000e+000
      vertex   -2.049818e+001 1.006038e+001 3.500000e+000
    endloop
  endfacet
  facet normal -0.000000e+000 1.000000e+000 0.000000e+000
    outer loop
      vertex   -1.950000e+001 1.100000e+001 8.000000e+000
      vertex   1.950000e+001 1.100000e+001 8.000000e+000
      vertex   -1.950000e+001 1.100000e+001 -1.000000e+000
    endloop
  endfacet
  facet normal -0.000000e+000 1.000000e+000 0.000000e+000
    outer loop
      vertex   -1.950000e+001 1.100000e+001 -1.000000e+000
      vertex   1.950000e+001 1.100000e+001 8.000000e+000
      vertex   1.950000e+001 1.100000e+001 -1.000000e+000
    endloop
  endfacet
  facet normal -0.000000e+000 0.000000e+000 1.000000e+000
    outer loop
      vertex   -1.972252e+001 1.097493e+001 8.000000e+000
      vertex   -1.993388e+001 1.090097e+001 8.000000e+000
      vertex   -1.950000e+001 1.100000e+001 8.000000e+000
    endloop
  endfacet
  facet normal 0.000000e+000 0.000000e+000 1.000000e+000
    outer loop
      vertex   -1.950000e+001 1.100000e+001 8.000000e+000
      vertex   -1.993388e+001 1.090097e+001 8.000000e+000
      vertex   -2.012349e+001 1.078183e+001 8.000000e+000
    endloop
  endfacet
  facet normal 0.000000e+000 -0.000000e+000 1.000000e+000
    outer loop
      vertex   -2.028183e+001 1.062349e+001 8.000000e+000
      vertex   -1.950000e+001 1.100000e+001 8.000000e+000
      vertex   -2.012349e+001 1.078183e+001 8.000000e+000
    endloop
  endfacet
  facet normal -0.000000e+000 0.000000e+000 1.000000e+000
    outer loop
      vertex   -2.028183e+001 1.062349e+001 8.000000e+000
      vertex   -2.040097e+001 1.043388e+001 8.000000e+000
      vertex   -1.950000e+001 1.100000e+001 8.000000e+000
    endloop
  endfacet
  facet normal 0.000000e+000 0.000000e+000 1.000000e+000
    outer loop
      vertex   -1.950000e+001 1.100000e+001 8.000000e+000
      vertex   -2.040097e+001 1.043388e+001 8.000000e+000
      vertex   -2.047493e+001 1.022252e+001 8.000000e+000
    endloop
  endfacet
  facet normal 0.000000e+000 0.000000e+000 1.000000e+000
    outer loop
      vertex   -1.850000e+001 9.000000e+000 8.000000e+000
      vertex   -2.047493e+001 1.022252e+001 8.000000e+000
      vertex   -2.050000e+001 1.000000e+001 8.000000e+000
    endloop
  endfacet
  facet normal 0.000000e+000 -0.000000e+000 1.000000e+000
    outer loop
      vertex   -2.050000e+001 6.000000e+000 8.000000e+000
      vertex   -1.850000e+001 9.000000e+000 8.000000e+000
      vertex   -2.050000e+001 1.000000e+001 8.000000e+000
    endloop
  endfacet
  facet normal 0.000000e+000 0.000000e+000 1.000000e+000
    outer loop
      vertex   -2.050000e+001 6.000000e+000 8.000000e+000
      vertex   -1.850000e+001 6.000000e+000 8.000000e+000
      vertex   -1.850000e+001 9.000000e+000 8.000000e+000
    endloop
  endfacet
  facet normal 0.000000e+000 0.000000e+000 1.000000e+000
    outer loop
      vertex   -1.950000e+001 1.100000e+001 8.000000e+000
      vertex   -2.047493e+001 1.022252e+001 8.000000e+000
      vertex   -1.850000e+001 9.000000e+000 8.000000e+000
    endloop
  endfacet
  facet normal 0.000000e+000 0.000000e+000 1.000000e+000
    outer loop
      vertex   1.850000e+001 9.000000e+000 8.000000e+000
      vertex   -1.950000e+001 1.100000e+001 8.000000e+000
      vertex   -1.850000e+001 9.000000e+000 8.000000e+000
    endloop
  endfacet
  facet normal 0.000000e+000 -0.000000e+000 1.000000e+000
    outer loop
      vertex   1.850000e+001 9.000000e+000 8.000000e+000
      vertex   1.950000e+001 1.100000e+001 8.000000e+000
      vertex   -1.950000e+001 1.100000e+001 8.000000e+000
    endloop
  endfacet
  facet normal 0.000000e+000 -0.000000e+000 1.000000e+000
    outer loop
      vertex   1.850000e+001 9.000000e+000 8.000000e+000
      vertex   2.047493e+001 1.022252e+001 8.000000e+000
      vertex   1.950000e+001 1.100000e+001 8.000000e+000
    endloop
  endfacet
  facet normal 0.000000e+000 -0.000000e+000 1.000000e+000
    outer loop
      vertex   1.850000e+001 9.000000e+000 8.000000e+000
      vertex   2.050000e+001 1.000000e+001 8.000000e+000
      vertex   2.047493e+001 1.022252e+001 8.000000e+000
    endloop
  endfacet
  facet normal -0.000000e+000 -0.000000e+000 1.000000e+000
    outer loop
      vertex   1.850000e+001 9.000000e+000 8.000000e+000
      vertex   2.050000e+001 4.000000e+000 8.000000e+000
      vertex   2.050000e+001 1.000000e+001 8.000000e+000
    endloop
  endfacet
  facet normal 0.000000e+000 0.000000e+000 1.000000e+000
    outer loop
      vertex   1.850000e+001 9.000000e+000 8.000000e+000
      vertex   1.850000e+001 4.000000e+000 8.000000e+000
      vertex   2.050000e+001 4.000000e+000 8.000000e+000
    endloop
  endfacet
  facet normal 0.000000e+000 0.000000e+000 1.000000e+000
    outer loop
      vertex   2.047493e+001 1.022252e+001 8.000000e+000
      vertex   2.040097e+001 1.043388e+001 8.000000e+000
      vertex   1.950000e+001 1.100000e+001 8.000000e+000
    endloop
  endfacet
  facet normal -0.000000e+000 -0.000000e+000 1.000000e+000
    outer loop
      vertex   1.950000e+001 1.100000e+001 8.000000e+000
      vertex   2.040097e+001 1.043388e+001 8.000000e+000
      vertex   2.028183e+001 1.062349e+001 8.000000e+000
    endloop
  endfacet
  facet normal 0.000000e+000 0.000000e+000 1.000000e+000
    outer loop
      vertex   2.012349e+001 1.078183e+001 8.000000e+000
      vertex   1.950000e+001 1.100000e+001 8.000000e+000
      vertex   2.028183e+001 1.062349e+001 8.000000e+000
    endloop
  endfacet
  facet normal 0.000000e+000 0.000000e+000 1.000000e+000
    outer loop
      vertex   2.012349e+001 1.078183e+001 8.000000e+000
      vertex   1.993388e+001 1.090097e+001 8.000000e+000
      vertex   1.950000e+001 1.100000e+001 8.000000e+000
    endloop
  endfacet
  facet normal -0.000000e+000 -0.000000e+000 1.000000e+000
    outer loop
      vertex   1.950000e+001 1.100000e+001 8.000000e+000
      vertex   1.993388e+001 1.090097e+001 8.000000e+000
      vertex   1.972252e+001 1.097493e+001 8.000000e+000
    endloop
  endfacet
  facet normal 9.995438e-001 3.020303e-002 0.000000e+000
    outer loop
      vertex   2.050000e+001 1.000000e+001 8.000000e+000
      vertex   2.050000e+001 1.000000e+001 -1.000000e+000
      vertex   2.049818e+001 1.006038e+001 3.500000e+000
    endloop
  endfacet
  facet normal 9.836189e-001 1.802549e-001 -1.413365e-003
    outer loop
      vertex   2.047493e+001 1.022252e+001 8.000000e+000
      vertex   2.049818e+001 1.006038e+001 3.500000e+000
      vertex   2.045472e+001 1.029750e+001 3.500000e+000
    endloop
  endfacet
  facet normal 9.118988e-001 4.104123e-001 -1.545763e-003
    outer loop
      vertex   2.040097e+001 1.043388e+001 8.000000e+000
      vertex   2.045472e+001 1.029750e+001 3.500000e+000
      vertex   2.035578e+001 1.051734e+001 3.500000e+000
    endloop
  endfacet
  facet normal 7.871825e-001 6.167181e-001 -1.611972e-003
    outer loop
      vertex   2.028183e+001 1.062349e+001 8.000000e+000
      vertex   2.035578e+001 1.051734e+001 3.500000e+000
      vertex   2.020711e+001 1.070711e+001 3.500000e+000
    endloop
  endfacet
  facet normal 6.167181e-001 7.871825e-001 -1.611972e-003
    outer loop
      vertex   2.012349e+001 1.078183e+001 8.000000e+000
      vertex   2.020711e+001 1.070711e+001 3.500000e+000
      vertex   2.001734e+001 1.085578e+001 3.500000e+000
    endloop
  endfacet
  facet normal 4.104123e-001 9.118988e-001 -1.545763e-003
    outer loop
      vertex   1.993388e+001 1.090097e+001 8.000000e+000
      vertex   2.001734e+001 1.085578e+001 3.500000e+000
      vertex   1.979750e+001 1.095472e+001 3.500000e+000
    endloop
  endfacet
  facet normal 1.802549e-001 9.836189e-001 -1.413365e-003
    outer loop
      vertex   1.972252e+001 1.097493e+001 8.000000e+000
      vertex   1.979750e+001 1.095472e+001 3.500000e+000
      vertex   1.956038e+001 1.099818e+001 3.500000e+000
    endloop
  endfacet
  facet normal 3.020303e-002 9.995438e-001 0.000000e+000
    outer loop
      vertex   1.950000e+001 1.100000e+001 8.000000e+000
      vertex   1.956038e+001 1.099818e+001 3.500000e+000
      vertex   1.950000e+001 1.100000e+001 -1.000000e+000
    endloop
  endfacet
  facet normal 1.119644e-001 9.937116e-001 1.099393e-003
    outer loop
      vertex   1.950000e+001 1.100000e+001 8.000000e+000
      vertex   1.972252e+001 1.097493e+001 8.000000e+000
      vertex   1.956038e+001 1.099818e+001 3.500000e+000
    endloop
  endfacet
  facet normal 9.438826e-001 3.302788e-001 -1.264872e-003
    outer loop
      vertex   2.040097e+001 1.043388e+001 -1.000000e+000
      vertex   2.045472e+001 1.029750e+001 3.500000e+000
      vertex   2.047493e+001 1.022252e+001 -1.000000e+000
    endloop
  endfacet
  facet normal 9.118988e-001 4.104123e-001 1.545763e-003
    outer loop
      vertex   2.040097e+001 1.043388e+001 -1.000000e+000
      vertex   2.035578e+001 1.051734e+001 3.500000e+000
      vertex   2.045472e+001 1.029750e+001 3.500000e+000
    endloop
  endfacet
  facet normal 8.467234e-001 5.320316e-001 -1.364180e-003
    outer loop
      vertex   2.040097e+001 1.043388e+001 -1.000000e+000
      vertex   2.028183e+001 1.062349e+001 -1.000000e+000
      vertex   2.035578e+001 1.051734e+001 3.500000e+000
    endloop
  endfacet
  facet normal 7.871825e-001 6.167181e-001 1.611972e-003
    outer loop
      vertex   2.035578e+001 1.051734e+001 3.500000e+000
      vertex   2.028183e+001 1.062349e+001 -1.000000e+000
      vertex   2.020711e+001 1.070711e+001 3.500000e+000
    endloop
  endfacet
  facet normal 7.071061e-001 7.071061e-001 -1.397285e-003
    outer loop
      vertex   2.020711e+001 1.070711e+001 3.500000e+000
      vertex   2.028183e+001 1.062349e+001 -1.000000e+000
      vertex   2.012349e+001 1.078183e+001 -1.000000e+000
    endloop
  endfacet
  facet normal 5.320316e-001 8.467234e-001 -1.364180e-003
    outer loop
      vertex   2.001734e+001 1.085578e+001 3.500000e+000
      vertex   2.012349e+001 1.078183e+001 -1.000000e+000
      vertex   1.993388e+001 1.090097e+001 -1.000000e+000
    endloop
  endfacet
  facet normal 3.302788e-001 9.438826e-001 -1.264872e-003
    outer loop
      vertex   1.979750e+001 1.095472e+001 3.500000e+000
      vertex   1.993388e+001 1.090097e+001 -1.000000e+000
      vertex   1.972252e+001 1.097493e+001 -1.000000e+000
    endloop
  endfacet
  facet normal 1.119644e-001 9.937116e-001 -1.099393e-003
    outer loop
      vertex   1.956038e+001 1.099818e+001 3.500000e+000
      vertex   1.972252e+001 1.097493e+001 -1.000000e+000
      vertex   1.950000e+001 1.100000e+001 -1.000000e+000
    endloop
  endfacet
  facet normal 1.802549e-001 9.836189e-001 1.413365e-003
    outer loop
      vertex   1.956038e+001 1.099818e+001 3.500000e+000
      vertex   1.979750e+001 1.095472e+001 3.500000e+000
      vertex   1.972252e+001 1.097493e+001 -1.000000e+000
    endloop
  endfacet
  facet normal 6.167181e-001 7.871825e-001 1.611972e-003
    outer loop
      vertex   2.020711e+001 1.070711e+001 3.500000e+000
      vertex   2.012349e+001 1.078183e+001 -1.000000e+000
      vertex   2.001734e+001 1.085578e+001 3.500000e+000
    endloop
  endfacet
  facet normal 4.104123e-001 9.118988e-001 1.545763e-003
    outer loop
      vertex   2.001734e+001 1.085578e+001 3.500000e+000
      vertex   1.993388e+001 1.090097e+001 -1.000000e+000
      vertex   1.979750e+001 1.095472e+001 3.500000e+000
    endloop
  endfacet
  facet normal 3.302788e-001 9.438826e-001 1.264872e-003
    outer loop
      vertex   1.972252e+001 1.097493e+001 8.000000e+000
      vertex   1.993388e+001 1.090097e+001 8.000000e+000
      vertex   1.979750e+001 1.095472e+001 3.500000e+000
    endloop
  endfacet
  facet normal 5.320316e-001 8.467234e-001 1.364180e-003
    outer loop
      vertex   1.993388e+001 1.090097e+001 8.000000e+000
      vertex   2.012349e+001 1.078183e+001 8.000000e+000
      vertex   2.001734e+001 1.085578e+001 3.500000e+000
    endloop
  endfacet
  facet normal 7.071061e-001 7.071061e-001 1.397285e-003
    outer loop
      vertex   2.012349e+001 1.078183e+001 8.000000e+000
      vertex   2.028183e+001 1.062349e+001 8.000000e+000
      vertex   2.020711e+001 1.070711e+001 3.500000e+000
    endloop
  endfacet
  facet normal 8.467234e-001 5.320316e-001 1.364180e-003
    outer loop
      vertex   2.028183e+001 1.062349e+001 8.000000e+000
      vertex   2.040097e+001 1.043388e+001 8.000000e+000
      vertex   2.035578e+001 1.051734e+001 3.500000e+000
    endloop
  endfacet
  facet normal 9.438826e-001 3.302788e-001 1.264872e-003
    outer loop
      vertex   2.040097e+001 1.043388e+001 8.000000e+000
      vertex   2.047493e+001 1.022252e+001 8.000000e+000
      vertex   2.045472e+001 1.029750e+001 3.500000e+000
    endloop
  endfacet
  facet normal 9.937116e-001 1.119644e-001 1.099393e-003
    outer loop
      vertex   2.047493e+001 1.022252e+001 8.000000e+000
      vertex   2.050000e+001 1.000000e+001 8.000000e+000
      vertex   2.049818e+001 1.006038e+001 3.500000e+000
    endloop
  endfacet
  facet normal 9.836189e-001 1.802549e-001 1.413365e-003
    outer loop
      vertex   2.047493e+001 1.022252e+001 -1.000000e+000
      vertex   2.045472e+001 1.029750e+001 3.500000e+000
      vertex   2.049818e+001 1.006038e+001 3.500000e+000
    endloop
  endfacet
  facet normal 9.937116e-001 1.119644e-001 -1.099393e-003
    outer loop
      vertex   2.050000e+001 1.000000e+001 -1.000000e+000
      vertex   2.047493e+001 1.022252e+001 -1.000000e+000
      vertex   2.049818e+001 1.006038e+001 3.500000e+000
    endloop
  endfacet
  facet normal 1.000000e+000 -5.921189e-016 0.000000e+000
    outer loop
      vertex   2.050000e+001 -4.000000e+000 8.000000e+000
      vertex   2.050000e+001 -1.000000e+001 8.000000e+000
      vertex   2.050000e+001 -4.000000e+000 1.000000e+000
    endloop
  endfacet
  facet normal 1.000000e+000 -5.921189e-016 0.000000e+000
    outer loop
      vertex   2.050000e+001 -4.000000e+000 1.000000e+000
      vertex   2.050000e+001 -1.000000e+001 8.000000e+000
      vertex   2.050000e+001 -1.000000e+001 -1.000000e+000
    endloop
  endfacet
  facet normal 1.000000e+000 0.000000e+000 -1.776357e-015
    outer loop
      vertex   2.050000e+001 1.000000e+001 -1.000000e+000
      vertex   2.050000e+001 -4.000000e+000 1.000000e+000
      vertex   2.050000e+001 -1.000000e+001 -1.000000e+000
    endloop
  endfacet
  facet normal 1.000000e+000 0.000000e+000 -1.776357e-015
    outer loop
      vertex   2.050000e+001 1.000000e+001 -1.000000e+000
      vertex   2.050000e+001 4.000000e+000 1.000000e+000
      vertex   2.050000e+001 -4.000000e+000 1.000000e+000
    endloop
  endfacet
  facet normal 1.000000e+000 5.921189e-016 -0.000000e+000
    outer loop
      vertex   2.050000e+001 1.000000e+001 -1.000000e+000
      vertex   2.050000e+001 1.000000e+001 8.000000e+000
      vertex   2.050000e+001 4.000000e+000 1.000000e+000
    endloop
  endfacet
  facet normal 1.000000e+000 5.921189e-016 0.000000e+000
    outer loop
      vertex   2.050000e+001 4.000000e+000 1.000000e+000
      vertex   2.050000e+001 1.000000e+001 8.000000e+000
      vertex   2.050000e+001 4.000000e+000 8.000000e+000
    endloop
  endfacet
  facet normal -4.440892e-016 -1.000000e+000 0.000000e+000
    outer loop
      vertex   1.850000e+001 4.000000e+000 1.000000e+000
      vertex   2.050000e+001 4.000000e+000 1.000000e+000
      vertex   1.850000e+001 4.000000e+000 8.000000e+000
    endloop
  endfacet
  facet normal -4.440892e-016 -1.000000e+000 0.000000e+000
    outer loop
      vertex   1.850000e+001 4.000000e+000 8.000000e+000
      vertex   2.050000e+001 4.000000e+000 1.000000e+000
      vertex   2.050000e+001 4.000000e+000 8.000000e+000
    endloop
  endfacet
  facet normal -0.000000e+000 1.000000e+000 0.000000e+000
    outer loop
      vertex   1.850000e+001 -4.000000e+000 8.000000e+000
      vertex   2.050000e+001 -4.000000e+000 8.000000e+000
      vertex   1.850000e+001 -4.000000e+000 1.000000e+000
    endloop
  endfacet
  facet normal -0.000000e+000 1.000000e+000 0.000000e+000
    outer loop
      vertex   1.850000e+001 -4.000000e+000 1.000000e+000
      vertex   2.050000e+001 -4.000000e+000 8.000000e+000
      vertex   2.050000e+001 -4.000000e+000 1.000000e+000
    endloop
  endfacet
  facet normal 0.000000e+000 -0.000000e+000 1.000000e+000
    outer loop
      vertex   1.850000e+001 -4.000000e+000 1.000000e+000
      vertex   2.050000e+001 -4.000000e+000 1.000000e+000
      vertex   1.850000e+001 4.000000e+000 1.000000e+000
    endloop
  endfacet
  facet normal -0.000000e+000 0.000000e+000 1.000000e+000
    outer loop
      vertex   1.850000e+001 4.000000e+000 1.000000e+000
      vertex   2.050000e+001 -4.000000e+000 1.000000e+000
      vertex   2.050000e+001 4.000000e+000 1.000000e+000
    endloop
  endfacet
  facet normal -0.000000e+000 -1.000000e+000 -0.000000e+000
    outer loop
      vertex   -1.850000e+001 6.000000e+000 8.000000e+000
      vertex   -2.050000e+001 6.000000e+000 8.000000e+000
      vertex   -1.850000e+001 6.000000e+000 1.000000e+000
    endloop
  endfacet
  facet normal -0.000000e+000 -1.000000e+000 -0.000000e+000
    outer loop
      vertex   -1.850000e+001 6.000000e+000 1.000000e+000
      vertex   -2.050000e+001 6.000000e+000 8.000000e+000
      vertex   -2.050000e+001 6.000000e+000 1.000000e+000
    endloop
  endfacet
  facet normal 0.000000e+000 0.000000e+000 1.000000e+000
    outer loop
      vertex   -1.850000e+001 6.000000e+000 1.000000e+000
      vertex   -2.050000e+001 6.000000e+000 1.000000e+000
      vertex   -1.850000e+001 -6.000000e+000 1.000000e+000
    endloop
  endfacet
  facet normal 0.000000e+000 0.000000e+000 1.000000e+000
    outer loop
      vertex   -1.850000e+001 -6.000000e+000 1.000000e+000
      vertex   -2.050000e+001 6.000000e+000 1.000000e+000
      vertex   -2.050000e+001 -6.000000e+000 1.000000e+000
    endloop
  endfacet
  facet normal -4.440892e-016 1.000000e+000 -2.253888e-031
    outer loop
      vertex   -1.850000e+001 -6.000000e+000 1.000000e+000
      vertex   -2.050000e+001 -6.000000e+000 1.000000e+000
      vertex   -1.850000e+001 -6.000000e+000 8.000000e+000
    endloop
  endfacet
  facet normal -4.440892e-016 1.000000e+000 2.253888e-031
    outer loop
      vertex   -1.850000e+001 -6.000000e+000 8.000000e+000
      vertex   -2.050000e+001 -6.000000e+000 1.000000e+000
      vertex   -2.050000e+001 -6.000000e+000 8.000000e+000
    endloop
  endfacet
  facet normal 1.000000e+000 0.000000e+000 -5.075305e-016
    outer loop
      vertex   -1.850000e+001 6.000000e+000 8.000000e+000
      vertex   -1.850000e+001 6.000000e+000 1.000000e+000
      vertex   -1.850000e+001 9.000000e+000 8.000000e+000
    endloop
  endfacet
  facet normal 1.000000e+000 -1.184238e-015 0.000000e+000
    outer loop
      vertex   -1.850000e+001 9.000000e+000 8.000000e+000
      vertex   -1.850000e+001 6.000000e+000 1.000000e+000
      vertex   -1.850000e+001 9.000000e+000 0.000000e+000
    endloop
  endfacet
  facet normal 1.000000e+000 -2.960595e-016 2.664535e-015
    outer loop
      vertex   -1.850000e+001 9.000000e+000 0.000000e+000
      vertex   -1.850000e+001 6.000000e+000 1.000000e+000
      vertex   -1.850000e+001 -6.000000e+000 1.000000e+000
    endloop
  endfacet
  facet normal 1.000000e+000 -1.184238e-015 0.000000e+000
    outer loop
      vertex   -1.850000e+001 -9.000000e+000 0.000000e+000
      vertex   -1.850000e+001 -6.000000e+000 1.000000e+000
      vertex   -1.850000e+001 -9.000000e+000 8.000000e+000
    endloop
  endfacet
  facet normal 1.000000e+000 -5.921189e-016 -1.776357e-015
    outer loop
      vertex   -1.850000e+001 -9.000000e+000 0.000000e+000
      vertex   -1.850000e+001 9.000000e+000 0.000000e+000
      vertex   -1.850000e+001 -6.000000e+000 1.000000e+000
    endloop
  endfacet
  facet normal 1.000000e+000 0.000000e+000 5.075305e-016
    outer loop
      vertex   -1.850000e+001 -6.000000e+000 1.000000e+000
      vertex   -1.850000e+001 -6.000000e+000 8.000000e+000
      vertex   -1.850000e+001 -9.000000e+000 8.000000e+000
    endloop
  endfacet
  facet normal 9.601929e-017 -1.000000e+000 0.000000e+000
    outer loop
      vertex   -1.850000e+001 9.000000e+000 0.000000e+000
      vertex   1.850000e+001 9.000000e+000 0.000000e+000
      vertex   -1.850000e+001 9.000000e+000 8.000000e+000
    endloop
  endfacet
  facet normal 9.601929e-017 -1.000000e+000 0.000000e+000
    outer loop
      vertex   -1.850000e+001 9.000000e+000 8.000000e+000
      vertex   1.850000e+001 9.000000e+000 0.000000e+000
      vertex   1.850000e+001 9.000000e+000 8.000000e+000
    endloop
  endfacet
  facet normal -1.000000e+000 0.000000e+000 -0.000000e+000
    outer loop
      vertex   1.850000e+001 4.000000e+000 8.000000e+000
      vertex   1.850000e+001 9.000000e+000 8.000000e+000
      vertex   1.850000e+001 4.000000e+000 1.000000e+000
    endloop
  endfacet
  facet normal -1.000000e+000 0.000000e+000 0.000000e+000
    outer loop
      vertex   1.850000e+001 4.000000e+000 1.000000e+000
      vertex   1.850000e+001 9.000000e+000 8.000000e+000
      vertex   1.850000e+001 9.000000e+000 0.000000e+000
    endloop
  endfacet
  facet normal -1.000000e+000 3.947460e-016 1.973730e-015
    outer loop
      vertex   1.850000e+001 -9.000000e+000 0.000000e+000
      vertex   1.850000e+001 4.000000e+000 1.000000e+000
      vertex   1.850000e+001 9.000000e+000 0.000000e+000
    endloop
  endfacet
  facet normal -1.000000e+000 8.881784e-016 -4.440892e-015
    outer loop
      vertex   1.850000e+001 -9.000000e+000 0.000000e+000
      vertex   1.850000e+001 -4.000000e+000 1.000000e+000
      vertex   1.850000e+001 4.000000e+000 1.000000e+000
    endloop
  endfacet
  facet normal -1.000000e+000 8.881784e-017 -4.440892e-016
    outer loop
      vertex   1.850000e+001 -9.000000e+000 0.000000e+000
      vertex   1.850000e+001 -9.000000e+000 8.000000e+000
      vertex   1.850000e+001 -4.000000e+000 1.000000e+000
    endloop
  endfacet
  facet normal -1.000000e+000 7.105427e-016 0.000000e+000
    outer loop
      vertex   1.850000e+001 -4.000000e+000 1.000000e+000
      vertex   1.850000e+001 -9.000000e+000 8.000000e+000
      vertex   1.850000e+001 -4.000000e+000 8.000000e+000
    endloop
  endfacet
  facet normal 0.000000e+000 1.000000e+000 -0.000000e+000
    outer loop
      vertex   1.850000e+001 -9.000000e+000 0.000000e+000
      vertex   -1.850000e+001 -9.000000e+000 0.000000e+000
      vertex   1.850000e+001 -9.000000e+000 8.000000e+000
    endloop
  endfacet
  facet normal 0.000000e+000 1.000000e+000 -0.000000e+000
    outer loop
      vertex   1.850000e+001 -9.000000e+000 8.000000e+000
      vertex   -1.850000e+001 -9.000000e+000 0.000000e+000
      vertex   -1.850000e+001 -9.000000e+000 8.000000e+000
    endloop
  endfacet
  facet normal -0.000000e+000 0.000000e+000 -1.000000e+000
    outer loop
      vertex   2.047493e+001 -1.022252e+001 -1.000000e+000
      vertex   1.950000e+001 -1.100000e+001 -1.000000e+000
      vertex   2.050000e+001 -1.000000e+001 -1.000000e+000
    endloop
  endfacet
  facet normal 0.000000e+000 0.000000e+000 -1.000000e+000
    outer loop
      vertex   2.047493e+001 -1.022252e+001 -1.000000e+000
      vertex   2.040097e+001 -1.043388e+001 -1.000000e+000
      vertex   1.950000e+001 -1.100000e+001 -1.000000e+000
    endloop
  endfacet
  facet normal 0.000000e+000 -0.000000e+000 -1.000000e+000
    outer loop
      vertex   1.950000e+001 -1.100000e+001 -1.000000e+000
      vertex   2.040097e+001 -1.043388e+001 -1.000000e+000
      vertex   2.028183e+001 -1.062349e+001 -1.000000e+000
    endloop
  endfacet
  facet normal -0.000000e+000 0.000000e+000 -1.000000e+000
    outer loop
      vertex   2.012349e+001 -1.078183e+001 -1.000000e+000
      vertex   1.950000e+001 -1.100000e+001 -1.000000e+000
      vertex   2.028183e+001 -1.062349e+001 -1.000000e+000
    endloop
  endfacet
  facet normal 0.000000e+000 0.000000e+000 -1.000000e+000
    outer loop
      vertex   2.012349e+001 -1.078183e+001 -1.000000e+000
      vertex   1.993388e+001 -1.090097e+001 -1.000000e+000
      vertex   1.950000e+001 -1.100000e+001 -1.000000e+000
    endloop
  endfacet
  facet normal 0.000000e+000 -0.000000e+000 -1.000000e+000
    outer loop
      vertex   1.950000e+001 -1.100000e+001 -1.000000e+000
      vertex   1.993388e+001 -1.090097e+001 -1.000000e+000
      vertex   1.972252e+001 -1.097493e+001 -1.000000e+000
    endloop
  endfacet
  facet normal 0.000000e+000 0.000000e+000 -1.000000e+000
    outer loop
      vertex   1.950000e+001 -1.100000e+001 -1.000000e+000
      vertex   -1.950000e+001 -1.100000e+001 -1.000000e+000
      vertex   2.050000e+001 -1.000000e+001 -1.000000e+000
    endloop
  endfacet
  facet normal -0.000000e+000 0.000000e+000 -1.000000e+000
    outer loop
      vertex   2.050000e+001 -1.000000e+001 -1.000000e+000
      vertex   -1.950000e+001 -1.100000e+001 -1.000000e+000
      vertex   -2.050000e+001 -1.000000e+001 -1.000000e+000
    endloop
  endfacet
  facet normal -0.000000e+000 0.000000e+000 -1.000000e+000
    outer loop
      vertex   2.050000e+001 1.000000e+001 -1.000000e+000
      vertex   -2.050000e+001 -1.000000e+001 -1.000000e+000
      vertex   -2.050000e+001 1.000000e+001 -1.000000e+000
    endloop
  endfacet
  facet normal -0.000000e+000 0.000000e+000 -1.000000e+000
    outer loop
      vertex   1.950000e+001 1.100000e+001 -1.000000e+000
      vertex   -2.050000e+001 1.000000e+001 -1.000000e+000
      vertex   -1.950000e+001 1.100000e+001 -1.000000e+000
    endloop
  endfacet
  facet normal -0.000000e+000 -0.000000e+000 -1.000000e+000
    outer loop
      vertex   1.950000e+001 1.100000e+001 -1.000000e+000
      vertex   2.050000e+001 1.000000e+001 -1.000000e+000
      vertex   -2.050000e+001 1.000000e+001 -1.000000e+000
    endloop
  endfacet
  facet normal 0.000000e+000 0.000000e+000 -1.000000e+000
    outer loop
      vertex   1.950000e+001 1.100000e+001 -1.000000e+000
      vertex   2.047493e+001 1.022252e+001 -1.000000e+000
      vertex   2.050000e+001 1.000000e+001 -1.000000e+000
    endloop
  endfacet
  facet normal 0.000000e+000 0.000000e+000 -1.000000e+000
    outer loop
      vertex   1.950000e+001 1.100000e+001 -1.000000e+000
      vertex   2.040097e+001 1.043388e+001 -1.000000e+000
      vertex   2.047493e+001 1.022252e+001 -1.000000e+000
    endloop
  endfacet
  facet normal 0.000000e+000 0.000000e+000 -1.000000e+000
    outer loop
      vertex   1.950000e+001 1.100000e+001 -1.000000e+000
      vertex   2.028183e+001 1.062349e+001 -1.000000e+000
      vertex   2.040097e+001 1.043388e+001 -1.000000e+000
    endloop
  endfacet
  facet normal 0.000000e+000 0.000000e+000 -1.000000e+000
    outer loop
      vertex   1.950000e+001 1.100000e+001 -1.000000e+000
      vertex   2.012349e+001 1.078183e+001 -1.000000e+000
      vertex   2.028183e+001 1.062349e+001 -1.000000e+000
    endloop
  endfacet
  facet normal 0.000000e+000 0.000000e+000 -1.000000e+000
    outer loop
      vertex   1.950000e+001 1.100000e+001 -1.000000e+000
      vertex   1.993388e+001 1.090097e+001 -1.000000e+000
      vertex   2.012349e+001 1.078183e+001 -1.000000e+000
    endloop
  endfacet
  facet normal 0.000000e+000 0.000000e+000 -1.000000e+000
    outer loop
      vertex   1.950000e+001 1.100000e+001 -1.000000e+000
      vertex   1.972252e+001 1.097493e+001 -1.000000e+000
      vertex   1.993388e+001 1.090097e+001 -1.000000e+000
    endloop
  endfacet
  facet normal 0.000000e+000 0.000000e+000 -1.000000e+000
    outer loop
      vertex   -1.972252e+001 -1.097493e+001 -1.000000e+000
      vertex   -1.993388e+001 -1.090097e+001 -1.000000e+000
      vertex   -1.950000e+001 -1.100000e+001 -1.000000e+000
    endloop
  endfacet
  facet normal 0.000000e+000 0.000000e+000 -1.000000e+000
    outer loop
      vertex   -1.950000e+001 -1.100000e+001 -1.000000e+000
      vertex   -1.993388e+001 -1.090097e+001 -1.000000e+000
      vertex   -2.012349e+001 -1.078183e+001 -1.000000e+000
    endloop
  endfacet
  facet normal -0.000000e+000 -0.000000e+000 -1.000000e+000
    outer loop
      vertex   -2.028183e+001 -1.062349e+001 -1.000000e+000
      vertex   -1.950000e+001 -1.100000e+001 -1.000000e+000
      vertex   -2.012349e+001 -1.078183e+001 -1.000000e+000
    endloop
  endfacet
  facet normal 0.000000e+000 0.000000e+000 -1.000000e+000
    outer loop
      vertex   -2.028183e+001 -1.062349e+001 -1.000000e+000
      vertex   -2.040097e+001 -1.043388e+001 -1.000000e+000
      vertex   -1.950000e+001 -1.100000e+001 -1.000000e+000
    endloop
  endfacet
  facet normal 0.000000e+000 0.000000e+000 -1.000000e+000
    outer loop
      vertex   -1.950000e+001 -1.100000e+001 -1.000000e+000
      vertex   -2.040097e+001 -1.043388e+001 -1.000000e+000
      vertex   -2.047493e+001 -1.022252e+001 -1.000000e+000
    endloop
  endfacet
  facet normal -0.000000e+000 -0.000000e+000 -1.000000e+000
    outer loop
      vertex   -2.050000e+001 -1.000000e+001 -1.000000e+000
      vertex   -1.950000e+001 -1.100000e+001 -1.000000e+000
      vertex   -2.047493e+001 -1.022252e+001 -1.000000e+000
    endloop
  endfacet
  facet normal 0.000000e+000 0.000000e+000 -1.000000e+000
    outer loop
      vertex   2.050000e+001 -1.000000e+001 -1.000000e+000
      vertex   -2.050000e+001 -1.000000e+001 -1.000000e+000
      vertex   2.050000e+001 1.000000e+001 -1.000000e+000
    endloop
  endfacet
  facet normal 0.000000e+000 0.000000e+000 -1.000000e+000
    outer loop
      vertex   -2.050000e+001 1.000000e+001 -1.000000e+000
      vertex   -2.047493e+001 1.022252e+001 -1.000000e+000
      vertex   -1.950000e+001 1.100000e+001 -1.000000e+000
    endloop
  endfacet
  facet normal -0.000000e+000 0.000000e+000 -1.000000e+000
    outer loop
      vertex   -1.950000e+001 1.100000e+001 -1.000000e+000
      vertex   -2.047493e+001 1.022252e+001 -1.000000e+000
      vertex   -2.040097e+001 1.043388e+001 -1.000000e+000
    endloop
  endfacet
  facet normal 0.000000e+000 -0.000000e+000 -1.000000e+000
    outer loop
      vertex   -2.028183e+001 1.062349e+001 -1.000000e+000
      vertex   -1.950000e+001 1.100000e+001 -1.000000e+000
      vertex   -2.040097e+001 1.043388e+001 -1.000000e+000
    endloop
  endfacet
  facet normal 0.000000e+000 0.000000e+000 -1.000000e+000
    outer loop
      vertex   -2.028183e+001 1.062349e+001 -1.000000e+000
      vertex   -2.012349e+001 1.078183e+001 -1.000000e+000
      vertex   -1.950000e+001 1.100000e+001 -1.000000e+000
    endloop
  endfacet
  facet normal -0.000000e+000 0.000000e+000 -1.000000e+000
    outer loop
      vertex   -1.950000e+001 1.100000e+001 -1.000000e+000
      vertex   -2.012349e+001 1.078183e+001 -1.000000e+000
      vertex   -1.993388e+001 1.090097e+001 -1.000000e+000
    endloop
  endfacet
  facet normal 0.000000e+000 -0.000000e+000 -1.000000e+000
    outer loop
      vertex   -1.972252e+001 1.097493e+001 -1.000000e+000
      vertex   -1.950000e+001 1.100000e+001 -1.000000e+000
      vertex   -1.993388e+001 1.090097e+001 -1.000000e+000
    endloop
  endfacet
  facet normal 0.000000e+000 -0.000000e+000 1.000000e+000
    outer loop
      vertex   -1.850000e+001 -9.000000e+000 0.000000e+000
      vertex   1.850000e+001 -9.000000e+000 0.000000e+000
      vertex   -1.850000e+001 9.000000e+000 0.000000e+000
    endloop
  endfacet
  facet normal -0.000000e+000 0.000000e+000 1.000000e+000
    outer loop
      vertex   -1.850000e+001 9.000000e+000 0.000000e+000
      vertex   1.850000e+001 -9.000000e+000 0.000000e+000
      vertex   1.850000e+001 9.000000e+000 0.000000e+000
    endloop
  endfacet
endsolid
